<svg id="Ebene_1" data-name="Ebene 1" xmlns="http://www.w3.org/2000/svg" viewBox="0 0 99.21 99.21"><defs><style>.cls-1{fill:#fff;}.cls-2{fill:#1d1d1b;}</style></defs><title>Application_Icons_01</title><polyline class="cls-1" points="9.83 44.39 9.83 56.04 29.42 78.3 63.81 76.26 90.33 35.75 89.89 31.54"/><path class="cls-2" d="M10,44.39,10.41,56l-.14-.38C12.15,57.29,14,59,15.74,60.72s3.48,3.52,5.18,5.31,3.35,3.63,4.9,5.56,3,3.95,4.45,6l-.92-.39c2.88.1,5.76.13,8.63,0s5.73-.37,8.59-.7,5.71-.76,8.56-1.14,5.71-.68,8.57-.93l-1.44.84q3.17-5.16,6.4-10.28T75.38,54.9C80,48.27,84.75,41.74,89.81,35.41l-.1.4c0-1.41,0-2.83,0-4.25l.4,0c.3,1.39.58,2.77.85,4.16l0,.16-.13.24c-3.78,7.17-7.86,14.14-12.08,21Q75.6,62.27,72.22,67.3t-6.86,10l-.56.81-.88,0c-2.87.09-5.74.13-8.62.09s-5.76-.12-8.64-.12-5.75.11-8.61.32-5.72.6-8.57,1l-.44.07-.48-.45c-1.81-1.7-3.64-3.38-5.34-5.17s-3.31-3.67-4.89-5.57-3.13-3.83-4.61-5.82-2.94-4-4.32-6.07l-.15-.23V56l.38-11.65Z"/><polygon class="cls-1" points="9.83 44.39 39.69 15.3 57.83 33.82 89.07 29.65 61.61 66.69 30.24 71.78 9.83 44.39"/><path class="cls-2" d="M9.63,44.38c2.19-2.46,4.48-5,6.8-7.48s4.69-5.07,7.12-7.62,4.87-5.11,7.36-7.65,5-5.07,7.55-7.59l1.23-1.22,1.27,1.25q2.31,2.28,4.55,4.62c1.52,1.54,3,3.12,4.46,4.7,2.94,3.17,5.81,6.41,8.68,9.64l-1-.33,7.86-.7c2.61-.28,5.23-.54,7.83-.88s5.21-.68,7.81-1,5.2-.77,7.79-1.21l1.84-.32-1.09,1.59L83.2,39.65Q80,44.43,76.68,49.17c-4.42,6.29-8.94,12.5-13.41,18.76l-.47.65-.87.16c-2.61.48-5.22.91-7.83,1.34s-5.22.87-7.85,1.25L38.4,72.49l-7.87,1.09-1.13.16-.62-.87c-1.72-2.4-3.37-4.83-5-7.23s-3.27-4.83-4.88-7.21-3.18-4.77-4.7-7.11Zm.4,0L21.21,57.75c1.79,2.18,3.59,4.32,5.32,6.48S30,68.52,31.7,70.69L29.95,70l7.81-1.45,7.83-1.37c2.61-.47,5.22-.88,7.84-1.3s5.23-.84,7.85-1.21l-1.33.81C64.63,59.37,69.26,53.23,74,47.18q3.57-4.53,7.21-9l7.21-9,.75,1.28c-2.62.25-5.22.56-7.83.87s-5.21.65-7.81,1-5.19.79-7.79,1.2L58,34.94l-.5.09L57,34.61c-3.17-2.94-6.35-5.87-9.46-8.88-1.55-1.51-3.1-3-4.61-4.55s-3-3.07-4.52-4.64l2.49,0c-2.45,2.33-4.88,4.67-7.38,7s-5,4.6-7.57,6.89-5.17,4.6-7.81,6.93Z"/><line class="cls-1" x1="56.54" y1="36.17" x2="32.54" y2="67.77"/><path class="cls-2" d="M56.54,36.17A65.83,65.83,0,0,1,51.78,45q-2.65,4.22-5.66,8.16t-6.34,7.64a65,65,0,0,1-7.25,6.95,65,65,0,0,1,4.75-8.85q2.65-4.22,5.66-8.16t6.34-7.64A65.83,65.83,0,0,1,56.54,36.17Z"/></svg>