<svg id="Ebene_1" data-name="Ebene 1" xmlns="http://www.w3.org/2000/svg" viewBox="0 0 99.21 99.21"><defs><style>.cls-1{fill:#fff;}.cls-2{fill:#1d1d1b;}</style></defs><title>Application_Icons_01</title><polygon class="cls-1" points="56.58 78.75 44.08 73.25 55.08 37.75 72.08 45.25 56.58 78.75"/><path class="cls-2" d="M56.64,78.89c-2-.63-4.13-1.32-6.32-2.08s-4.46-1.58-6.7-2.49l-.93-.38.28-1q1.21-4.49,2.59-8.92c.93-3,2-5.86,3.17-8.74s2.24-5.79,3.16-8.75,1.79-5.93,2.54-8.94l.18-.71.75.28c2.9,1.1,5.83,2.13,8.72,3.26s5.74,2.32,8.61,3.5l1.37.56-.62,1.43c-1.26,2.9-2.56,5.81-3.92,8.68s-2.78,5.7-4.23,8.47S62.4,68.53,61,71.18,58.06,76.41,56.64,78.89Zm-.11-.28,3.43-9c1.14-2.93,2.26-5.79,3.41-8.59s2.32-5.55,3.52-8.28,2.5-5.39,3.83-8.07l.75,2c-2.8-1.33-5.61-2.63-8.39-4s-5.52-2.84-8.28-4.24l.93-.42q-1.62,4.36-3,8.81c-.91,3-1.64,6-2.34,9s-1.43,6-2.33,9-1.88,5.9-2.91,8.83l-.65-1.42c1.93.93,3.83,1.93,5.8,3Z"/><path class="cls-1" d="M55.08,37.75s-2.5-14.67,5.67-19.33,21.67,2.33,20.5,13-9.17,13.83-9.17,13.83"/><path class="cls-2" d="M54.93,37.77a19.51,19.51,0,0,1-1-4.23,22,22,0,0,1-.17-4.38,19.08,19.08,0,0,1,.73-4.42,11.59,11.59,0,0,1,2.09-4.11,10.2,10.2,0,0,1,3.66-2.88A19.3,19.3,0,0,1,62.4,17a13.68,13.68,0,0,1,2.19-.38,20.24,20.24,0,0,1,8.68,1,14.63,14.63,0,0,1,7.26,5.34,13,13,0,0,1,1.21,2,21.11,21.11,0,0,1,.83,2.25,19.34,19.34,0,0,1,.34,2.39l0,1.21a6.42,6.42,0,0,1-.1,1.17,17.82,17.82,0,0,1-3.43,8.36,14.56,14.56,0,0,1-3.23,3.12,11.82,11.82,0,0,1-4,1.9L72,45.11a17.76,17.76,0,0,0,5.35-6A20,20,0,0,0,79.6,31.6c.1-.65,0-1.23.09-1.85s-.14-1.2-.18-1.81-.28-1.19-.53-1.76a10.51,10.51,0,0,0-.82-1.67,16.47,16.47,0,0,0-5.57-5.4,11.67,11.67,0,0,0-7.86-1.51,9.39,9.39,0,0,0-1.93.59,12.92,12.92,0,0,0-1.71,1,10.14,10.14,0,0,0-2.46,2.89,18.5,18.5,0,0,0-2.13,5.38l-.24,1-.18,1a69,69,0,0,0-.84,8.3Z"/><path class="cls-2" d="M56.58,22.92a41.8,41.8,0,0,1,4.84,4.91q2.21,2.6,4.14,5.4T69.18,39a41.25,41.25,0,0,1,2.91,6.26,41.25,41.25,0,0,1-4.84-4.91q-2.21-2.6-4.14-5.4t-3.61-5.77A41.81,41.81,0,0,1,56.58,22.92Z"/><path class="cls-2" d="M65.42,17.08A38.27,38.27,0,0,1,69.79,22a64.56,64.56,0,0,1,3.65,5.37,63.45,63.45,0,0,1,3.1,5.71,37.77,37.77,0,0,1,2.37,6.16,37.78,37.78,0,0,1-4.38-4.93,63.43,63.43,0,0,1-3.65-5.38,64.56,64.56,0,0,1-3.1-5.71A38.27,38.27,0,0,1,65.42,17.08Z"/><path class="cls-2" d="M81.42,30.42a30.15,30.15,0,0,1-4.54,3.71,50.59,50.59,0,0,1-4.93,3,49.71,49.71,0,0,1-5.23,2.38,29.78,29.78,0,0,1-5.63,1.62,29.79,29.79,0,0,1,4.54-3.71,49.7,49.7,0,0,1,4.93-3A50.59,50.59,0,0,1,75.79,32,30.15,30.15,0,0,1,81.42,30.42Z"/><path class="cls-2" d="M54.58,32.92a38,38,0,0,1,5.33-3.85A64.14,64.14,0,0,1,65.6,26a63,63,0,0,1,6-2.5,37.53,37.53,0,0,1,6.34-1.73,37.53,37.53,0,0,1-5.32,3.86,63,63,0,0,1-5.7,3.08,64.15,64.15,0,0,1-6,2.5A38,38,0,0,1,54.58,32.92Z"/><path class="cls-1" d="M45.08,74.25s-3,8.33,1.83,9.83,7.5-5.83,7.5-5.83"/><path class="cls-2" d="M45.08,74.25a39.72,39.72,0,0,0,.26,5.26,6,6,0,0,0,.65,2,2.05,2.05,0,0,0,1.19,1,3.5,3.5,0,0,0,3.55-.65,23.19,23.19,0,0,0,3.68-3.66,9.1,9.1,0,0,1-2.06,5.37,6.11,6.11,0,0,1-2.73,1.89c-.29.08-.59.15-.89.21l-.92,0a5.07,5.07,0,0,1-.89-.13l-.44-.09-.43-.17a5.35,5.35,0,0,1-.84-.42c-.26-.19-.52-.39-.76-.6a5.21,5.21,0,0,1-1-1.55A6.73,6.73,0,0,1,43,79.56,10.58,10.58,0,0,1,45.08,74.25Z"/><path class="cls-2" d="M47,84.22a10,10,0,0,1-7.16.78,11,11,0,0,1-3.43-1.62,14.74,14.74,0,0,1-2.72-2.57,38.15,38.15,0,0,1-4-5.89,39.88,39.88,0,0,1-2.76-6.52,65.21,65.21,0,0,1-1.82-6.82,33.09,33.09,0,0,1-.79-7,15.72,15.72,0,0,1,1.58-7.08,13.62,13.62,0,0,1,2.2-3,11.56,11.56,0,0,1,3.07-2.32,9.53,9.53,0,0,1,7.79-.34A11.1,11.1,0,0,1,44.7,47a8.92,8.92,0,0,1,1,4,7.67,7.67,0,0,1-.07,1.08c0,.35-.1.66-.17,1A12.27,12.27,0,0,1,44.89,55a18.14,18.14,0,0,1-4.26,6.19,32.9,32.9,0,0,1-5.7,4.45A52.56,52.56,0,0,1,28.67,69a65.73,65.73,0,0,1-13.3,4.4l-.09-.29A124,124,0,0,0,27.63,67a48.82,48.82,0,0,0,10.76-8,17.28,17.28,0,0,0,3.54-5.17,13.44,13.44,0,0,0,.47-1.43c.06-.24.12-.49.15-.72a4.56,4.56,0,0,0,.06-.65,5.87,5.87,0,0,0-.6-2.67,8.27,8.27,0,0,0-4.15-4,7,7,0,0,0-5.67,0,12.17,12.17,0,0,0-4.67,4.09,12.73,12.73,0,0,0-2.15,6.14A20.07,20.07,0,0,0,26,61.36a30.4,30.4,0,0,0,2.53,6.34c1.05,2,2.22,4,3.4,5.9a65.78,65.78,0,0,0,3.71,5.62,11.49,11.49,0,0,0,4.76,4,11.23,11.23,0,0,0,6.46.68Z"/></svg>