<svg id="Ebene_1" data-name="Ebene 1" xmlns="http://www.w3.org/2000/svg" viewBox="0 0 99.21 99.21"><defs><style>.cls-1{fill:#fff;}.cls-2{fill:#1d1d1b;}</style></defs><title>Application_Icons_01</title><path class="cls-1" d="M46,29l-3.1-10.86L7.33,25.94s7,43.74,16.75,49.79,18.18,1.16,18.18,1.16"/><path class="cls-2" d="M46,29c-1.4-3.51-2.69-7.06-4-10.61l1,.62c-2.92.84-5.87,1.61-8.8,2.41l-8.83,2.27-8.86,2.15c-2.95.73-5.92,1.36-8.88,2l1.52-2.23c1,5.86,2.15,11.78,3.47,17.61s2.72,11.65,4.49,17.32a69.39,69.39,0,0,0,3.11,8.27,24.89,24.89,0,0,0,2.09,3.77,10.84,10.84,0,0,0,1.31,1.59,7.46,7.46,0,0,0,.74.64c.26.2.59.39.89.59a19,19,0,0,0,8.17,2.8,18,18,0,0,0,8.73-1.33,17.3,17.3,0,0,1-8.77,2.36,19.58,19.58,0,0,1-9-2.23c-.35-.19-.68-.35-1-.57a7.6,7.6,0,0,1-1-.74A12.91,12.91,0,0,1,20.66,74,27.21,27.21,0,0,1,18,70a63.31,63.31,0,0,1-3.81-8.42c-1.1-2.86-2-5.77-2.88-8.69S9.67,47.07,9,44.11C7.59,38.19,6.33,32.28,5.39,26.25L5.11,24.4,6.91,24c3-.62,5.94-1.29,8.92-1.87l8.94-1.76,9-1.64c3-.5,6-1,9-1.5l.87-.13.17.75C44.59,21.55,45.36,25.24,46,29Z"/><path class="cls-2" d="M51.55,58.54c-3-1-5.93-1.94-8.78-2.57s-5.67-.88-7.92-.1S30.61,58.62,29,61a50.64,50.64,0,0,0-4.16,8.08,20.2,20.2,0,0,1,1.44-9.51A15.38,15.38,0,0,1,29,55.23a11.26,11.26,0,0,1,4.49-3.12,11.87,11.87,0,0,1,5.4-.55,17.72,17.72,0,0,1,4.87,1.35A21.84,21.84,0,0,1,51.55,58.54Z"/><path class="cls-1" d="M52.7,22.45,94.58,32.79,82,67.28S73.64,86.2,52.7,79.68s-13-25.48-13-25.48Z"/><path class="cls-2" d="M52.7,22.45l20.83,4.24L84.2,29c3.57.75,7.16,1.57,10.74,2.37l1.61.36L96,33.31l-2.81,8.22-2.87,8.2c-1.91,5.47-3.83,10.93-5.8,16.37l-.37,1-.18.51-.09.26,0,.13-.1.23a23.22,23.22,0,0,1-1.14,2.09,30.06,30.06,0,0,1-2.72,3.76,25.47,25.47,0,0,1-7.17,6,23.14,23.14,0,0,1-9,2.81,27.71,27.71,0,0,1-9.25-.71A31,31,0,0,1,46,78.71a19.24,19.24,0,0,1-6.77-6.55,18.25,18.25,0,0,1-2.49-9.05,24.15,24.15,0,0,1,1.59-9C43.09,43.13,48,32.57,52.7,22.45Zm0,0C48.62,33.71,44.75,44.54,40.8,55c-1.65,5.13-1.57,11.08,1.29,15.39a15.75,15.75,0,0,0,5.71,5.23,27.37,27.37,0,0,0,7.58,2.82,24.18,24.18,0,0,0,8,.55,19.19,19.19,0,0,0,7.44-2.4,23.27,23.27,0,0,0,6.09-5.07,26.13,26.13,0,0,0,2.38-3.24c.35-.56.69-1.16,1-1.71l.71-1.92c2-5.42,4-10.81,6.06-16.21L90,40.35l3.13-8.07,1.05,2c-3.39-.91-6.79-1.83-10.2-2.8L73.75,28.55Z"/><line class="cls-1" x1="54.25" y1="30.36" x2="63.25" y2="44.17"/><path class="cls-2" d="M54.25,30.36a16.46,16.46,0,0,1,3.23,2.81A26.21,26.21,0,0,1,60,36.45a25.74,25.74,0,0,1,2,3.63,16.26,16.26,0,0,1,1.26,4.1A16.26,16.26,0,0,1,60,41.36a25.75,25.75,0,0,1-2.52-3.28,26.21,26.21,0,0,1-2-3.63A16.46,16.46,0,0,1,54.25,30.36Z"/><line class="cls-1" x1="82.8" y1="37.79" x2="66.4" y2="44.17"/><path class="cls-2" d="M82.8,37.79a18.5,18.5,0,0,1-3.68,2.69,29.86,29.86,0,0,1-4,1.9,29.33,29.33,0,0,1-4.22,1.3,18.29,18.29,0,0,1-4.53.5,18.29,18.29,0,0,1,3.67-2.69,29.33,29.33,0,0,1,4-1.89,29.86,29.86,0,0,1,4.22-1.29A18.51,18.51,0,0,1,82.8,37.79Z"/><path class="cls-1" d="M72.56,64.48S65.11,70.54,57,67.28a15.06,15.06,0,0,1-9.31-10.55"/><path class="cls-2" d="M72.56,64.48A13.94,13.94,0,0,1,66,69.33a13.38,13.38,0,0,1-8.65.15,15.24,15.24,0,0,1-3.9-1.93,14.73,14.73,0,0,1-3.14-3,11.58,11.58,0,0,1-2.52-7.83,21.7,21.7,0,0,0,4.81,5.67,20.5,20.5,0,0,0,2.87,1.93c.53.24,1,.55,1.55.74l.79.35.79.26a15.45,15.45,0,0,0,6.68.61A35.24,35.24,0,0,0,72.56,64.48Z"/><path class="cls-2" d="M15.48,36.25A14.26,14.26,0,0,0,19,39a5.72,5.72,0,0,0,1.72.51,4.93,4.93,0,0,0,.85,0,3.64,3.64,0,0,0,.87-.15A5,5,0,0,0,24,38.72a3,3,0,0,0,1.1-1.16,9.74,9.74,0,0,0,.84-4.25,5.86,5.86,0,0,1,1.4,5,4.7,4.7,0,0,1-1.56,2.64,3,3,0,0,1-.62.46,6.59,6.59,0,0,1-.66.39,7.91,7.91,0,0,1-1.38.48,6.42,6.42,0,0,1-3,0,6.16,6.16,0,0,1-2.56-1.39A6.78,6.78,0,0,1,15.48,36.25Z"/><path class="cls-2" d="M31.25,32.08a14.26,14.26,0,0,0,3.51,2.76,5.72,5.72,0,0,0,1.72.51,4.93,4.93,0,0,0,.85,0,3.64,3.64,0,0,0,.87-.15,5,5,0,0,0,1.59-.64,3,3,0,0,0,1.1-1.16,9.74,9.74,0,0,0,.84-4.25,5.86,5.86,0,0,1,1.4,5,4.7,4.7,0,0,1-1.56,2.64,3,3,0,0,1-.62.46,6.59,6.59,0,0,1-.66.39,7.91,7.91,0,0,1-1.38.48,6.42,6.42,0,0,1-3,0,6.16,6.16,0,0,1-2.56-1.39A6.78,6.78,0,0,1,31.25,32.08Z"/></svg>