<svg id="Ebene_1" data-name="Ebene 1" xmlns="http://www.w3.org/2000/svg" viewBox="0 0 99.21 99.21"><defs><style>.cls-1{fill:#1d1d1b;}.cls-2{fill:#fff;}</style></defs><title>Application_Icons_01</title><path class="cls-1" d="M25.65,71.56c.72-2.94,1.51-5.85,2.35-8.75s1.73-5.78,2.66-8.65,1.88-5.73,3-8.55l3.25-8.45.11-.28.27,0c2.7.19,5.4.27,8.11.34s5.41,0,8.12,0,5.41,0,8.12,0,5.41.09,8.11.13l1.29,0-.36,1.28C69.84,41.45,69,44.23,68.17,47s-1.74,5.52-2.66,8.26-1.84,5.49-2.82,8.21-2,5.45-3,8.16l-.19-.06c.63-2.83,1.31-5.65,2-8.45S63,57.5,63.74,54.72s1.57-5.57,2.38-8.35,1.69-5.53,2.58-8.28l.93,1.3c-2.7-.14-5.4-.25-8.1-.42s-5.4-.34-8.1-.55-5.4-.4-8.1-.53-5.4-.21-8.11-.2l.38-.26-2.5,8.7c-.84,2.9-1.78,5.76-2.79,8.6s-2,5.68-3.08,8.5-2.19,5.62-3.39,8.4Z"/><circle class="cls-1" cx="20.2" cy="70.13" r="6.35"/><circle class="cls-1" cx="53.53" cy="70.13" r="6.35"/><line class="cls-2" x1="33.78" y1="47.58" x2="66.46" y2="48.93"/><path class="cls-1" d="M33.78,47.58c2.74-.3,5.47-.41,8.2-.44s5.45,0,8.18.11,5.44.28,8.16.56,5.43.59,8.14,1.12c-2.74.3-5.47.41-8.2.44s-5.45,0-8.18-.12-5.44-.29-8.16-.56S36.49,48.11,33.78,47.58Z"/><circle class="cls-1" cx="20.77" cy="38.71" r="4.19"/><path class="cls-1" d="M24.6,39.9c.17-2.06.43-4.1.73-6.13s.63-4.06,1-6.08.76-4,1.18-6,.88-4,1.33-6l1-4.41.85,4.41A21.51,21.51,0,0,0,31.61,19c.09.27.2.53.32.78s.28.59.39.9a8.9,8.9,0,0,1,.52,1.9,6.84,6.84,0,0,1-.45,3.89A4.56,4.56,0,0,1,29.61,29a4.67,4.67,0,0,0,2.05-2.77,6.38,6.38,0,0,0-.1-3.35,9.38,9.38,0,0,0-.62-1.58c-.12-.26-.27-.5-.41-.75s-.33-.59-.46-.89A22.32,22.32,0,0,1,28.85,16H30.7c-.41,2-.8,4-1.25,6s-.9,4-1.4,6S27,32,26.46,34,25.29,38,24.6,39.9Z"/><circle class="cls-1" cx="76.52" cy="57.6" r="4.19"/><path class="cls-1" d="M80.35,58.78c.17-2.06.43-4.1.73-6.13s.63-4.06,1-6.08.76-4,1.18-6,.88-4,1.33-6l1-4.41.85,4.41a21.51,21.51,0,0,0,.91,3.38c.09.27.2.53.32.78s.28.59.39.9a8.9,8.9,0,0,1,.52,1.9,6.84,6.84,0,0,1-.45,3.89,4.56,4.56,0,0,1-2.78,2.51,4.67,4.67,0,0,0,2.05-2.77,6.38,6.38,0,0,0-.1-3.35,9.38,9.38,0,0,0-.62-1.58c-.12-.26-.27-.5-.41-.75s-.33-.59-.46-.89a22.32,22.32,0,0,1-1.22-3.64h1.85c-.41,2-.8,4-1.25,6s-.9,4-1.4,6-1,4-1.59,5.95S81,56.83,80.35,58.78Z"/></svg>