<?xml version="1.0" encoding="utf-8"?>
<!-- Generator: Adobe Illustrator 21.0.0, SVG Export Plug-In . SVG Version: 6.00 Build 0)  -->
<svg version="1.1" id="Layer_1" xmlns="http://www.w3.org/2000/svg" xmlns:xlink="http://www.w3.org/1999/xlink" x="0px" y="0px"
	 viewBox="0 0 223 213" style="enable-background:new 0 0 223 213;" xml:space="preserve">
<style type="text/css">
	.st0{fill:#FFFFFF;}
	.st1{fill:none;}
	.st2{display:none;}
</style>
<g id="Layer_2">
	<g>
		<g>
			<path class="st0" d="M83,200.6l15.9-63.2c0,0-17.8-6.9-20.6-23.4c-2.8-16.6,6.5-33.1,23.4-37.5s34.9,7.3,37.1,28.7
				s-18.6,31.1-18.6,31.1l10.5,51.5"/>
			<path d="M83,200.6c1.2-5.3,2.3-10.6,3.6-15.9l3.7-15.9l3.7-15.9l3.8-15.9l0.8,1.5c-3.6-1.4-6.7-3.3-9.7-5.6s-5.6-5-7.8-8.2
				c-2.1-3.2-3.7-6.8-4.3-10.6c-0.7-3.7-0.8-7.6-0.3-11.3c1-7.5,4.5-14.8,10-20.1c2.8-2.7,6-4.9,9.5-6.4c1.7-0.8,3.6-1.4,5.4-1.9
				c1.9-0.5,3.8-0.8,5.7-0.9c7.7-0.5,15.6,2.1,21.5,7.1c2.9,2.5,5.5,5.4,7.4,8.7c1.9,3.3,3.3,6.9,4.1,10.6c0.4,1.8,0.7,3.7,0.8,5.6
				c0.2,1.9,0.1,3.8-0.1,5.7c-0.4,3.8-1.6,7.6-3.4,10.9c-1.8,3.3-4.3,6.3-7,8.8c-1.4,1.3-2.8,2.4-4.4,3.5s-3.1,2-4.9,2.9l0.7-1.5
				l2.4,12.9c0.8,4.3,1.5,8.6,2.3,12.9l2.3,12.9c0.8,4.3,1.5,8.6,2.2,13c-1-4.3-2.1-8.5-3-12.8l-3-12.8c-1-4.3-2-8.5-2.9-12.8
				l-2.9-12.8l-0.2-1l1-0.5c6-3.3,11.4-8.3,14.5-14.3c1.6-3,2.5-6.3,2.9-9.7c0.1-1.7,0.2-3.4,0-5.1s-0.4-3.4-0.8-5.1
				c-1.6-6.7-5.1-12.9-10.3-17.2c-5.2-4.3-12-6.6-18.7-6.1c-1.7,0.1-3.3,0.4-5,0.8c-1.6,0.4-3.2,1-4.8,1.7c-3.1,1.4-5.9,3.3-8.4,5.6
				c-4.9,4.7-8.1,11.1-9.1,17.8c-0.5,3.4-0.5,6.8,0.1,10.2c0.6,3.3,1.8,6.5,3.6,9.4c3.7,5.7,9.5,10.2,15.7,13.1l1.1,0.5l-0.3,1
				L96,153.5l-4.3,15.7l-4.3,15.7C86,190.2,84.5,195.4,83,200.6z"/>
		</g>
		<g>
			<path class="st0" d="M99.9,144.5c0,0-8.7,9.3-25.7,0.9c-16.9-8.3-37.3-42.1-40.6-40.9s2,8.5,2,8.5s-3.3-5.8-5.3-3.5
				s3.1,11.4,3.1,11.4s-2.4-4.4-4.3-1.7s15,34.6,37,40.9s32.3-2.8,32.3-2.8"/>
			<path d="M99.9,144.5c-2.8,2.8-6.8,4.4-10.8,4.7c-4,0.4-8.1-0.4-11.9-1.7c-1.9-0.7-3.8-1.5-5.5-2.5c-1.8-1-3.4-2.2-5-3.4
				c-3.2-2.5-6.1-5.3-8.8-8.1c-5.5-5.8-10.6-11.9-15.6-18.1c-1.2-1.5-2.5-3.1-3.8-4.6s-2.6-3-3.9-4.2c-0.3-0.3-0.7-0.6-0.9-0.7
				c0,0-0.1,0,0,0c0,0,0.1,0,0.2,0H34c0.1,0,0.1,0,0.1,0c-0.1,0-0.1,0-0.1,0.1c0,0-0.1,0.1-0.1,0.4s0.1,0.7,0.2,1.1
				c0.5,1.6,1.6,3.3,2.6,4.8l-2.4,1.5c-0.7-1.2-1.8-2.6-2.7-3.1c-0.2-0.1-0.4-0.1-0.3-0.1s0.1-0.1,0,0c0,0-0.1,0.1-0.1,0.3
				c0,0.2,0,0.6,0,0.9c0.2,1.3,0.7,2.8,1.3,4.3c0.6,1.4,1.3,2.9,2.1,4.2l-2.6,1.5c-0.4-0.7-1-1.4-1.5-1.7c-0.1-0.1-0.2-0.1-0.2-0.1
				h0.1c0,0,0,0-0.1,0.1l-0.1,0.1c0,0,0,0,0-0.1c0,0,0-0.1,0.1-0.1v-0.1c0,0,0,0.5,0.1,0.9s0.2,0.9,0.4,1.3c0.3,0.9,0.7,1.8,1.1,2.7
				c1.6,3.5,3.7,7,5.9,10.2c4.4,6.5,9.7,12.6,15.9,17.5c3.1,2.4,6.4,4.5,10.1,5.9c1.8,0.7,3.7,1.2,5.6,1.8c1.9,0.5,3.9,0.9,5.8,1.2
				c3.9,0.5,7.9,0.7,11.8,0.1c2-0.3,3.9-0.7,5.8-1.4s3.7-1.5,5.4-2.7c-3.1,2.6-7,4.1-11,5c-4,0.8-8.1,1-12.2,0.6
				c-2-0.2-4.1-0.5-6.1-0.9s-4-0.9-5.9-1.6c-3.9-1.4-7.5-3.6-10.8-6c-6.6-5-12-11.2-16.7-17.8c-2.3-3.4-4.4-6.9-6.2-10.6
				c-0.4-0.9-0.8-1.9-1.2-2.9c-0.2-0.5-0.3-1-0.5-1.6c-0.1-0.6-0.3-1.1-0.2-2.1c0-0.2,0.1-0.3,0.1-0.5c0-0.1,0.1-0.2,0.1-0.3
				c0.1-0.1,0.1-0.2,0.1-0.2c0.1-0.2,0.2-0.3,0.4-0.4c0.3-0.3,0.6-0.6,1.1-0.8c0.5-0.2,1.1-0.3,1.6-0.2c0.5,0.1,0.9,0.3,1.2,0.5
				c1.3,0.8,1.8,1.7,2.5,2.8c0.4,0.7,0.2,1.6-0.5,2.1c-0.7,0.4-1.6,0.2-2.1-0.5v-0.1l0,0c-0.8-1.5-1.5-3-2.2-4.6
				c-0.6-1.6-1.3-3.2-1.5-5.1c-0.1-0.5-0.1-1,0-1.6s0.2-1.3,0.8-1.9c0.2-0.3,0.5-0.5,0.9-0.7s0.8-0.3,1.2-0.4c0.9,0,1.5,0.3,2,0.6
				c1,0.6,1.6,1.3,2.1,2c0.6,0.7,1,1.4,1.5,2.2l0,0c0.4,0.7,0.2,1.6-0.5,2s-1.5,0.2-1.9-0.4c-1.2-1.8-2.2-3.5-2.9-5.7
				c-0.2-0.6-0.3-1.1-0.3-1.8c0-0.7,0.1-1.6,0.8-2.3c0.3-0.4,0.7-0.6,1.1-0.8c0,0,0.2-0.1,0.3-0.1s0.2,0,0.3,0c0.2,0,0.4,0,0.5,0
				c0.3,0.1,0.5,0.1,0.7,0.2c0.7,0.4,1.1,0.7,1.5,1.1c1.6,1.5,2.8,3,4.1,4.6c1.3,1.5,2.5,3.1,3.7,4.7c4.9,6.2,9.8,12.5,15.1,18.2
				c2.7,2.9,5.5,5.7,8.5,8.2c1.5,1.2,3.1,2.4,4.7,3.4s3.4,1.8,5.2,2.6c3.6,1.5,7.4,2.4,11.3,2.3c1.9-0.1,3.9-0.4,5.7-1.1
				C96.7,146.7,98.4,145.8,99.9,144.5z"/>
		</g>
		<g>
			<polyline class="st0" points="101.1,117.1 101.4,93.5 112.9,91.8 143.8,95.3 144.9,115.7 114,117.3 101.1,117.1 			"/>
			<path d="M101.1,117.1c-0.3-3.9-0.5-7.9-0.6-11.8c-0.2-3.9-0.3-7.8-0.4-11.8v-1.1l1.2-0.2c1.9-0.4,3.8-0.7,5.7-1.1
				c1.9-0.3,3.8-0.7,5.7-1h0.2h0.2c5.2,0.5,10.3,1,15.5,1.5l7.7,0.8c2.6,0.3,5.2,0.5,7.7,0.8l1.7,0.2l0.1,1.7l0.5,10.2l0.3,10.2
				l0.1,1.7l-1.7,0.1c-2.6,0.1-5.1,0.2-7.7,0.2l-7.7,0.2c-5.2,0.1-10.3,0.2-15.5,0.2H114C109.7,117.8,105.4,117.5,101.1,117.1
				c4.3-0.2,8.6-0.4,12.9-0.5h-0.1c5.1-0.5,10.3-0.9,15.4-1.4l7.7-0.6c2.6-0.2,5.1-0.4,7.7-0.6l-1.6,1.8l-0.7-10.2l-0.6-10.2
				l1.8,1.9c-2.6-0.3-5.1-0.6-7.7-0.9l-7.7-0.9c-5.1-0.6-10.3-1.3-15.4-1.9h0.4c-1.9,0.3-3.9,0.4-5.8,0.7c-1.9,0.2-3.9,0.4-5.8,0.6
				l1.1-1.3c-0.2,3.9-0.4,7.8-0.7,11.8C101.8,109.2,101.5,113.2,101.1,117.1z"/>
		</g>
		<g>
			<path d="M114,93.8c0.6,1.6,0.9,3.3,1.2,4.9c0.2,1.6,0.3,3.3,0.3,4.9s-0.1,3.3-0.3,4.9c-0.2,1.6-0.6,3.3-1.2,4.9
				c-0.6-1.6-0.9-3.3-1.2-4.9c-0.2-1.6-0.3-3.3-0.3-4.9s0.1-3.3,0.3-4.9C113.1,97.1,113.4,95.5,114,93.8z"/>
		</g>
		<g>
			<line class="st1" x1="102.2" y1="99.4" x2="76.7" y2="99.8"/>
			<path d="M102.2,99.4c-2.1,0.7-4.2,1-6.4,1.3c-2.1,0.2-4.2,0.4-6.4,0.4c-2.1,0-4.2,0-6.4-0.2c-2.1-0.2-4.3-0.5-6.4-1.1
				c2.1-0.7,4.2-1,6.4-1.3c2.1-0.2,4.2-0.4,6.4-0.4c2.1,0,4.2,0,6.4,0.2C98,98.6,100.1,98.9,102.2,99.4z"/>
		</g>
		<g>
			<line class="st1" x1="101.1" y1="108.8" x2="76.7" y2="109.7"/>
			<path d="M101.1,108.8c-2,0.7-4,1.1-6,1.4s-4,0.5-6.1,0.5c-2,0.1-4.1,0-6.1-0.1c-2-0.2-4.1-0.4-6.1-1c2-0.7,4-1.1,6-1.4
				s4-0.5,6.1-0.5c2-0.1,4.1,0,6.1,0.1C97,108,99,108.3,101.1,108.8z"/>
		</g>
	</g>
	
		<image style="display:none;overflow:visible;opacity:0.4;enable-background:new    ;" width="4000" height="3000" xlink:href="IMG_20180927_152438.jpg"  transform="matrix(-9.576500e-02 0 0 -9.576500e-02 316.6288 203.8266)">
	</image>
	<g>
		<g>
			<path class="st0" d="M29.9,196.7c0,0,10.3-98.5,11.6-104c1.4-5.5,3-12.8,10.7-11.7c7.7,1.2,8,7.6,7.4,13.5
				C59,100.5,29.9,196.7,29.9,196.7z"/>
			<path d="M29.9,196.9c0-0.3-0.1-0.7-0.1-1.1v-1l0.1-1.9l0.2-3.9c0.1-2.6,0.3-5.1,0.4-7.7c0.3-5.1,0.7-10.2,1.1-15.4l0.7-7.7
				l0.8-7.7c0.5-5.1,1.1-10.2,1.8-15.3c1.4-10.2,3.1-20.3,4.5-30.5l1-7.6c0.2-1.3,0.3-2.5,0.5-3.9c0.1-0.7,0.3-1.3,0.4-1.9
				c0.1-0.6,0.3-1.3,0.5-1.9c0.3-1.3,0.7-2.5,1.3-3.8c0.5-1.2,1.2-2.5,2.2-3.5s2.3-1.8,3.8-2.1c1.4-0.3,2.9-0.3,4.2,0
				c1.4,0.2,2.8,0.7,4,1.5c1.3,0.8,2.3,2,2.9,3.4c1.3,2.7,1.3,5.6,1.2,8.2c0,0.3,0,0.7-0.1,1c0,0.3-0.1,0.7-0.1,1
				c-0.1,0.7-0.2,1.4-0.4,2.1l-0.9,3.8c-0.6,2.5-1.3,5-1.9,7.5c-2.7,9.9-5.4,19.8-8.3,29.7c-3,9.8-6.1,19.6-9.3,29.4
				c-1.6,4.9-3.3,9.7-4.9,14.6c-0.8,2.4-1.7,4.8-2.6,7.3l-1.3,3.6l-0.7,1.8l-0.4,0.9C30.3,196.3,30,196.6,29.9,196.9z M30,196.5
				c0.1-0.4,0-0.6,0-0.8s0.1-0.6,0.2-0.9l0.4-1.9l0.9-3.7c0.6-2.5,1.2-5,1.9-7.5c1.3-5,2.6-9.9,3.9-14.9c2.6-9.9,5.4-19.8,8.2-29.7
				c1.4-4.9,2.9-9.9,4.4-14.8l4.4-14.7l2.1-7.4l1-3.7l0.4-1.7c0.1-0.3,0.1-0.6,0.2-0.9c0-0.3,0.1-0.6,0.1-0.9
				c0.3-2.4,0.3-4.9-0.5-6.9s-2.6-3.4-4.9-3.9c-2.3-0.6-4.7-0.4-6.4,1.2c-1.7,1.5-2.6,4-3.4,6.4c-0.3,1.2-0.7,2.5-0.9,3.7
				s-0.4,2.5-0.6,3.8c-0.4,2.5-0.6,5.1-0.9,7.6c-1.1,10.2-1.6,20.5-2.4,30.7c-0.4,5.1-1,10.2-1.6,15.3l-0.9,7.6l-1,7.6
				c-0.3,2.5-0.7,5.1-1,7.6s-0.7,5.1-1.1,7.6c-0.4,2.5-0.8,5.1-1.2,7.6l-0.6,3.8l-0.3,1.9c-0.1,0.3-0.1,0.7-0.2,0.9
				C30.3,195.9,30.1,196.1,30,196.5z"/>
		</g>
		<g>
			<polygon class="st0" points="46.2,82.4 47.3,72.8 61.8,75.5 58.5,84.7 			"/>
			<path d="M46.2,82.4c0-1.4-0.1-3-0.1-4.6c0-0.8,0-1.6,0-2.5c0-0.8,0-1.7,0.1-2.6c0-0.5,0.5-1,1-0.9h0.1h0.1l3.7,0.5l3.7,0.5
				c1.2,0.2,2.4,0.4,3.6,0.6c1.2,0.2,2.4,0.4,3.6,0.7l0,0c0.8,0.2,1.3,0.9,1.2,1.8c0,0.1,0,0.2-0.1,0.2c-0.6,1.5-1.1,3-1.7,4.5
				c-0.6,1.5-1.2,3-1.9,4.5l-0.1,0.1c-0.2,0.5-0.8,0.8-1.3,0.6L55,85.1l-3.1-0.9C49.9,83.6,48,83,46.2,82.4z M46.2,82.4l6.5,0.5
				l3,0.3l2.9,0.3l-1.4,0.8c0.5-1.6,1-3.1,1.5-4.6s1-3.1,1.6-4.6l1.1,2c-1.2-0.2-2.4-0.5-3.6-0.7c-1.2-0.2-2.4-0.5-3.6-0.7l-3.6-0.8
				L47,74l1.2-0.9c-0.1,0.7-0.3,1.5-0.4,2.2c-0.2,0.7-0.3,1.5-0.5,2.3L46.2,82.4z"/>
		</g>
		<g>
			<path class="st0" d="M46.9,72.1c0,0-6.9-11.9-3.4-22.8C47.1,38.6,54.2,38,58.1,34.1S67,21.8,67,21.8s12.6,24,8.8,36
				s-14,17.7-14,17.7L46.9,72.1z"/>
			<path d="M46.9,72.1c-1.3-2.1-2.4-4.5-3.3-6.9c-0.9-2.4-1.5-4.9-1.7-7.5c-0.3-2.6-0.1-5.2,0.5-7.8c0.6-2.5,1.6-5,3.1-7.2
				s3.5-4.1,5.7-5.5c2.2-1.5,4.4-2.6,6-4.2c1.6-1.7,3.1-3.7,4.5-5.8c1.4-2,2.8-4.1,4.1-6.2l0,0c0.4-0.7,1.3-0.9,2-0.5
				c0.2,0.1,0.4,0.4,0.5,0.6c2.4,4.6,4.4,9.3,6.1,14.2s3.1,9.9,3.4,15.2c0.2,2.6,0,5.4-0.9,8c-0.9,2.5-2.1,4.9-3.5,7
				c-1.4,2.2-3.2,4.2-5.1,6s-3.9,3.4-6.3,4.6l0,0c-0.1,0.1-0.3,0.1-0.4,0.1C56.6,74.9,51.7,73.5,46.9,72.1z M46.9,72.1
				c5.1,0.9,10.1,1.8,15,2.8L61.5,75c4.1-2.7,7.6-6.5,10.1-10.6c1.3-2.1,2.3-4.3,3-6.7c0.7-2.2,0.8-4.6,0.6-7
				c-0.2-2.4-0.7-4.8-1.3-7.2c-0.6-2.4-1.4-4.8-2.2-7.1c-0.8-2.4-1.8-4.7-2.8-7s-2-4.6-3.1-6.8l2.6,0.1c-2.7,4.3-5.5,8.6-9.2,12.4
				c-2.1,2-4.5,3-6.5,4.4c-2.1,1.3-3.9,2.8-5.3,4.7c-1.4,1.9-2.4,4.1-3.2,6.4c-0.7,2.3-0.9,4.8-0.9,7.2
				C43.4,62.6,44.8,67.6,46.9,72.1z"/>
		</g>
		<g>
			<path class="st0" d="M48.7,70.4c0,0-3.9-9.2-0.9-16.2s5.1-9.2,5.1-9.2"/>
			<path d="M48.7,70.4c-1.4-1.9-2.3-4.1-2.9-6.4c-0.6-2.3-0.7-4.7-0.3-7.2c0.1-0.6,0.3-1.2,0.4-1.8c0.2-0.6,0.4-1.2,0.7-1.7
				c0.5-1,1-2.1,1.7-3c1.2-1.9,2.6-3.9,4.6-5.2c-1,2.1-1.7,4.2-2.5,6.3l-1.2,3.1c-0.2,0.5-0.3,1-0.5,1.5c-0.1,0.5-0.2,1-0.3,1.5
				c-0.3,2-0.4,4.1-0.3,6.3C48.2,65.8,48.4,68,48.7,70.4z"/>
		</g>
		<g>
			<path class="st0" d="M55.5,56c0,0-3.8,3.8-3.6,6.4c0.3,2.6,0.4,7.8,0.4,7.8"/>
			<path d="M55.5,56c-0.4,1.3-1,2.5-1.4,3.6c-0.2,0.6-0.4,1.1-0.5,1.6c0,0.2-0.1,0.5-0.1,0.7c0,0.1,0,0.2,0,0.3s0,0.1,0,0.3
				c0.1,1.3,0,2.6-0.1,3.9c-0.2,1.3-0.4,2.6-1,3.9c-0.7-1.3-1.1-2.5-1.4-3.8c-0.3-1.3-0.4-2.5-0.5-3.8v-0.6c0-0.3,0-0.5,0.1-0.7
				c0.1-0.4,0.2-0.8,0.4-1.2c0.3-0.7,0.7-1.3,1.2-1.8C53,57.3,54.1,56.5,55.5,56z"/>
		</g>
		<g>
			<path class="st0" d="M59.7,71.4c0,0,3.5-2.8,5.4-5.7c2-2.8,3.9-9.1,3.9-9.1"/>
			<path d="M59.7,71.4c0.7-1.4,1.6-2.7,2.4-3.9c0.8-1.2,1.7-2.3,2.3-3.4c0.7-1.2,1.3-2.5,2.1-3.7c0.7-1.3,1.6-2.5,2.6-3.8
				c0.1,1.6-0.1,3.1-0.4,4.6c-0.4,1.5-0.9,2.9-1.7,4.4c-0.8,1.5-2,2.6-3.2,3.6C62.6,70.1,61.3,70.9,59.7,71.4z"/>
		</g>
	</g>
	<g>
		<polygon class="st0" points="131.3,61.2 185.6,109.9 193.7,13.5 		"/>
		<path d="M131.6,61.2c5.3,4.1,10.3,8,15.1,11.9c2.4,1.9,4.7,3.9,7.1,5.8c2.3,1.9,4.6,3.9,6.8,5.8c4.4,3.9,8.5,8,12.6,12.3
			c4.1,4.2,8.4,8.5,13,12.4l-1.3,0.5c0.6-8,0.6-16.1,0.8-24.2c0.1-4,0.4-8.1,0.6-12.1l0.7-12.1c0.6-8,1.4-16.1,2.4-24.1
			s2.1-16,3.6-24l1.1,0.6L131.6,61.2z M131.1,61.2L193.3,13c0.3-0.2,0.7-0.2,1,0.1c0.1,0.1,0.1,0.3,0.1,0.4v0.1
			c0.1,8.1-0.1,16.2-0.4,24.2c-0.3,8.1-0.8,16.1-1.6,24.1L191,74c-0.4,4-0.9,8-1.4,12c-1.1,8-2.5,16-3.2,24l0,0
			c0,0.4-0.4,0.7-0.8,0.7c-0.2,0-0.3-0.1-0.5-0.2c-4.5-4.2-9.2-8.1-14.2-12s-10-7.9-14.6-12.1c-2.3-2.1-4.5-4.3-6.8-6.4
			c-2.2-2.1-4.4-4.3-6.5-6.4C138.9,69.5,134.8,65.3,131.1,61.2z"/>
	</g>
	<g>
		<path d="M69.7,19.4c3.7-1.4,7.6-2.5,11.4-3.4C85,15,89,14.3,93,13.9c1-0.1,2-0.2,3-0.2s2,0,3.1-0.1c1,0.1,2.1,0.1,3.1,0.2
			c1,0.1,2.1,0.2,3.1,0.4c3.9,0.8,7.8,1.4,11.7,2.2l0,0c0.1,0,0.2,0.1,0.3,0.1c3.5,1.6,6.8,3.4,10,5.6c1.6,1.1,3.1,2.2,4.6,3.5
			c1.4,1.3,2.8,2.7,3.9,4.5c0.5,0.9,1,1.8,1.2,2.9l0.1,0.8v0.8c0,0.5-0.1,1.1-0.2,1.6c-0.5,2.1-1.9,3.7-3.5,4.9s-3.5,1.9-5.4,2.3
			c-1.9,0.4-3.9,0.4-5.8-0.1s-3.7-1.7-4.9-3.3c-0.6-0.8-1.1-1.7-1.4-2.7s-0.4-2-0.2-3c0.2-2,1-3.9,2-5.6s2.3-3.2,3.6-4.6
			c5.5-5.5,12.9-8.9,20.5-10.3c3.8-0.7,7.7-0.9,11.6-0.7c1.9,0.1,3.9,0.3,5.8,0.7c2,0.4,3.9,0.9,5.9,1.9c1.9,1,3.7,2.5,4.9,4.3
			c1.3,1.8,2,3.9,2.5,5.8c0.9,3.9,1.2,7.5,2.1,11c0.4,1.7,0.9,3.4,1.6,5c0.6,1.6,1.5,2.8,2.7,3.8c2.4,2.1,6,2.9,9.5,3.2
			c3.6,0.3,7.2,0,10.9-0.5s7.3-1.3,10.9-2.3l0,0c0.1,0,0.2,0,0.2,0.1s0,0.2-0.1,0.2c-3.4,1.5-7,2.7-10.7,3.6
			c-3.7,0.9-7.4,1.5-11.3,1.5c-1.9,0-3.9-0.2-5.9-0.7s-3.9-1.3-5.7-2.6c-1.7-1.3-3.1-3.2-3.9-5c-0.8-1.8-1.5-3.7-2-5.5
			c-1-3.8-1.5-7.6-2.3-10.9c-0.5-1.7-1-3.2-1.9-4.4c-0.8-1.3-2-2.2-3.4-3c-2.8-1.5-6.4-2.1-10-2.4s-7.2-0.2-10.7,0.3
			s-7,1.5-10.3,2.9s-6.5,3.2-9.2,5.5c-1.4,1.2-2.6,2.5-3.6,3.9c-1,1.5-1.8,3.1-2.1,4.7c-0.7,3.4,2,6.8,5.4,7.6
			c1.7,0.5,3.5,0.5,5.2,0.1c1.7-0.4,3.4-1.1,4.7-2.3c1.3-1.1,2.4-2.6,2.6-4.2c0.1-0.4,0.1-0.8,0.1-1.2l-0.1-0.6l-0.1-0.6
			c-0.2-0.7-0.7-1.5-1.2-2.1c-1-1.4-2.4-2.5-3.8-3.6c-1.4-1.1-2.9-2.1-4.5-3c-3.1-1.8-6.4-3.5-9.7-5l0.4,0.1
			c-3.9-0.8-7.8-1.6-11.6-2.4c-1-0.2-1.9-0.3-2.8-0.5c-0.9-0.1-1.9-0.2-2.8-0.3c-1,0-1.9-0.1-2.9-0.1s-1.9,0-2.9,0
			c-1.9,0.1-3.9,0.2-5.8,0.4c-2,0.2-3.9,0.4-5.9,0.7c-3.9,0.5-7.8,1.2-11.7,1.9c-0.1,0-0.2,0-0.2-0.2C69.5,19.6,69.6,19.5,69.7,19.4
			z"/>
	</g>
	<g>
		<g>
			<path class="st0" d="M176.8,149.7c23.1,18.9-15.6,50.4-38.6,49.7c-22.9-0.7-11.3-16-16.3-21.5s-18.2,3.7-20.2-8
				C99.8,158.2,153.6,130.7,176.8,149.7z"/>
			<path d="M176.9,149.5l1.3,1.2l0.6,0.6c0.2,0.2,0.4,0.4,0.6,0.6l1.2,1.3l1,1.4c1.3,1.9,2.2,4.1,2.7,6.5c0.4,2.3,0.3,4.8-0.2,7.1
				c-0.5,2.4-1.4,4.6-2.4,6.7c-2.2,4.3-5.3,8-8.8,11.2s-7.4,5.9-11.6,8.1c-4.2,2.2-8.6,3.8-13.2,4.9c-2.3,0.5-4.6,0.9-7,0.9
				c-2.4,0.1-4.7-0.1-7-0.4c-2.3-0.3-4.6-1-6.8-2.1c-1-0.6-2-1.4-2.8-2.4c-0.7-1-1.3-2.2-1.6-3.3c-0.6-2.4-0.5-4.8-0.5-7.1
				c0-1.1,0-2.3-0.2-3.3c-0.1-1-0.5-2-1-2.6c-1.2-1.4-3.3-1.6-5.4-1.5c-2.2,0.1-4.5,0.5-7,0.5c-1.3,0-2.6-0.1-4-0.7
				c-1.4-0.5-2.6-1.5-3.4-2.8c-0.8-1.2-1.2-2.6-1.5-3.8c-0.1-0.3-0.1-0.8-0.2-1.2c0-0.4,0-0.8,0.1-1.2c0.1-0.8,0.4-1.5,0.7-2.1
				c1.2-2.5,2.9-4.3,4.7-6c1.8-1.7,3.7-3.1,5.6-4.5s4-2.6,6-3.7c2.1-1.1,4.2-2.2,6.3-3.1c8.6-3.7,17.8-6.3,27.2-6.6
				c4.7-0.1,9.4,0.2,14,1.4C169,144.6,173.3,146.5,176.9,149.5z M176.7,149.8c-1.8-1.4-3.8-2.6-5.9-3.5c-2.1-0.8-4.3-1.5-6.6-1.8
				c-4.5-0.7-9.1-0.5-13.5,0.2c-4.5,0.7-8.8,1.8-13.1,3.1s-8.5,2.9-12.6,4.8c-4.1,1.8-8.1,4-11.8,6.4c-1.9,1.2-3.6,2.5-5.3,4
				c-1.6,1.4-3.1,3-3.9,4.7c-0.2,0.4-0.4,0.8-0.4,1.2c-0.1,0.2,0,0.3-0.1,0.5c0,0.2,0,0.3,0.1,0.5c0.2,1,0.4,1.9,0.9,2.6
				c0.4,0.7,1,1.2,1.8,1.6c0.8,0.3,1.7,0.5,2.8,0.6c2.1,0.2,4.4-0.1,6.8,0c1.2,0,2.5,0.1,3.8,0.5s2.6,1.2,3.4,2.3
				c0.9,1.2,1.2,2.5,1.3,3.8c0.1,1.2,0,2.4-0.1,3.6c-0.2,2.3-0.4,4.6,0.1,6.7c0.4,2.1,1.7,3.9,3.6,5c1.9,1.1,4.1,1.6,6.3,1.9
				c2.2,0.3,4.5,0.3,6.7,0.1s4.4-0.8,6.6-1.4c4.3-1.4,8.3-3.3,12.2-5.7c3.8-2.3,7.5-4.9,10.8-7.8l1.3-1.1l1.2-1.2
				c0.8-0.7,1.6-1.6,2.4-2.4c1.4-1.7,2.9-3.3,4.1-5.2c1.2-1.9,2.3-3.8,3-5.9c0.7-2.1,1-4.3,0.9-6.5s-1-4.4-2.1-6.3l-0.9-1.4
				l-1.1-1.3c-0.4-0.4-0.8-0.8-1.2-1.2L176.7,149.8z"/>
		</g>
		<g>
			<path d="M145.6,149.4c1.3-0.2,2.8-0.2,4.2,0.5c0.7,0.4,1.3,1,1.6,1.9s0.2,1.9-0.1,2.7c-0.7,1.6-2,2.8-3.6,3.3
				c-0.4,0.1-0.8,0.3-1.2,0.3l-1,0.2c-0.7,0.1-1.4,0.2-2.1,0.2c-0.7,0-1.5,0-2.3-0.2s-1.7-0.6-2.3-1.2c-0.7-0.6-1.1-1.3-1.5-2.1
				c-0.1-0.2-0.1-0.3-0.2-0.6c-0.1-0.3-0.1-0.6-0.1-0.9c0-0.6,0.3-1.2,0.6-1.6c0.6-0.7,1.3-1.1,2-1.4c0.7-0.3,1.3-0.5,2-0.7
				C142.9,149.5,144.2,149.4,145.6,149.4z M145.6,149.4c-1.2,0.6-2.4,1.1-3.6,1.8c-0.6,0.3-1.1,0.6-1.6,1s-0.9,0.8-1.1,1.1
				c-0.1,0.2-0.1,0.3,0,0.3c0,0,0,0,0.2,0.3c0.3,0.5,0.6,0.8,1,1.1c0.7,0.5,1.7,0.6,2.9,0.6c0.6,0,1.2-0.1,1.8-0.1l1-0.1
				c0.3,0,0.5-0.1,0.7-0.1c0.9-0.3,1.9-0.8,2.4-1.6s0.5-1.7-0.3-2.5C148.2,150.2,146.9,149.8,145.6,149.4z"/>
		</g>
		<g>
			<path d="M161.7,171.8c1.3-0.2,2.8-0.2,4.2,0.5c0.7,0.4,1.3,1,1.6,1.9s0.2,1.9-0.1,2.7c-0.7,1.6-2,2.8-3.6,3.3
				c-0.4,0.1-0.8,0.3-1.2,0.3l-1,0.2c-0.7,0.1-1.4,0.2-2.1,0.2c-0.7,0-1.5,0-2.3-0.2s-1.7-0.6-2.3-1.2c-0.7-0.6-1.1-1.3-1.5-2.1
				c-0.1-0.2-0.1-0.3-0.2-0.6c-0.1-0.3-0.1-0.6-0.1-0.9c0-0.6,0.3-1.2,0.6-1.6c0.6-0.7,1.3-1.1,2-1.4c0.7-0.3,1.3-0.5,2-0.7
				C159,172,160.4,171.8,161.7,171.8z M161.7,171.8c-1.2,0.6-2.4,1.1-3.6,1.8c-0.6,0.3-1.1,0.6-1.6,1s-0.9,0.8-1.1,1.1
				c-0.1,0.2-0.1,0.3,0,0.3c0,0,0,0,0.2,0.3c0.3,0.5,0.6,0.8,1,1.1c0.7,0.5,1.7,0.6,2.9,0.6c0.6,0,1.2-0.1,1.8-0.1l1-0.1
				c0.3,0,0.5-0.1,0.7-0.1c0.9-0.3,1.9-0.8,2.4-1.6s0.5-1.7-0.3-2.5C164.3,172.7,163,172.2,161.7,171.8z"/>
		</g>
		<g>
			<path d="M140.8,181c1.3-0.2,2.8-0.2,4.2,0.5c0.7,0.4,1.3,1,1.6,1.9s0.2,1.9-0.1,2.7c-0.7,1.6-2,2.8-3.6,3.3
				c-0.4,0.1-0.8,0.3-1.2,0.3l-1,0.2c-0.7,0.1-1.4,0.2-2.1,0.2c-0.7,0-1.5,0-2.3-0.2s-1.7-0.6-2.3-1.2c-0.7-0.6-1.1-1.3-1.5-2.1
				c-0.1-0.2-0.1-0.3-0.2-0.6c-0.1-0.3-0.1-0.6-0.1-0.9c0-0.6,0.3-1.2,0.6-1.6c0.6-0.7,1.3-1.1,2-1.4c0.7-0.3,1.3-0.5,2-0.7
				C138.1,181.2,139.4,181,140.8,181z M140.8,181c-1.2,0.6-2.4,1.1-3.6,1.8c-0.6,0.3-1.1,0.6-1.6,1s-0.9,0.8-1.1,1.1
				c-0.1,0.2-0.1,0.3,0,0.3c0,0,0,0,0.2,0.3c0.3,0.5,0.6,0.8,1,1.1c0.7,0.5,1.7,0.6,2.9,0.6c0.6,0,1.2-0.1,1.8-0.1l1-0.1
				c0.3,0,0.5-0.1,0.7-0.1c0.9-0.3,1.9-0.8,2.4-1.6s0.5-1.7-0.3-2.5C143.4,181.9,142.1,181.4,140.8,181z"/>
		</g>
		<g>
			<path d="M122.8,157.5c1.2-0.7,2.5-1.2,4.1-1.1c0.8,0.1,1.6,0.5,2.2,1.2s0.9,1.6,0.9,2.5c0,1.8-0.8,3.3-2.1,4.4
				c-0.3,0.3-0.7,0.5-1,0.7l-0.9,0.5c-0.6,0.4-1.2,0.7-1.9,1c-0.7,0.3-1.4,0.5-2.2,0.6c-0.8,0.1-1.8,0.1-2.6-0.2
				c-0.9-0.3-1.6-0.8-2.1-1.4c-0.2-0.2-0.2-0.2-0.5-0.5c-0.2-0.2-0.4-0.5-0.5-0.8c-0.2-0.6-0.1-1.2,0-1.7c0.3-0.9,0.8-1.5,1.3-2
				s1.1-1,1.6-1.4C120.4,158.7,121.6,158,122.8,157.5z M122.8,157.5c-0.9,1-1.8,2-2.6,3c-0.4,0.5-0.8,1-1.1,1.5
				c-0.3,0.5-0.6,1.1-0.6,1.4c0,0.2,0,0.3,0.1,0.3c0,0,0,0,0.3,0.2c0.4,0.3,0.9,0.5,1.3,0.6c0.8,0.2,1.8,0,2.9-0.5
				c0.5-0.2,1.1-0.5,1.7-0.8l0.8-0.4c0.2-0.1,0.4-0.2,0.6-0.4c0.8-0.6,1.4-1.5,1.6-2.4c0.2-0.9-0.1-1.7-1.2-2.2
				C125.5,157.3,124.2,157.4,122.8,157.5z"/>
		</g>
		<g>
			<path d="M167.2,153.2c1.3-0.2,2.8-0.2,4.2,0.5c0.7,0.4,1.3,1,1.6,1.9s0.2,1.9-0.1,2.7c-0.7,1.6-2,2.8-3.6,3.3
				c-0.4,0.1-0.8,0.3-1.2,0.3l-1,0.2c-0.7,0.1-1.4,0.2-2.1,0.2c-0.7,0-1.5,0-2.3-0.2s-1.7-0.6-2.3-1.2c-0.7-0.6-1.1-1.3-1.5-2.1
				c-0.1-0.2-0.1-0.3-0.2-0.6c-0.1-0.3-0.1-0.6-0.1-0.9c0-0.6,0.3-1.2,0.6-1.6c0.6-0.7,1.3-1.1,2-1.4c0.7-0.3,1.3-0.5,2-0.7
				C164.5,153.4,165.9,153.2,167.2,153.2z M167.2,153.2c-1.2,0.6-2.4,1.1-3.6,1.8c-0.6,0.3-1.1,0.6-1.6,1s-0.9,0.8-1.1,1.1
				c-0.1,0.2-0.1,0.3,0,0.3c0,0,0,0,0.2,0.3c0.3,0.5,0.6,0.8,1,1.1c0.7,0.5,1.7,0.6,2.9,0.6c0.6,0,1.2-0.1,1.8-0.1l1-0.1
				c0.3,0,0.5-0.1,0.7-0.1c0.9-0.3,1.9-0.8,2.4-1.6s0.5-1.7-0.3-2.5C169.8,154.1,168.5,153.6,167.2,153.2z"/>
		</g>
	</g>
</g>
<g id="Layer_3">
</g>
<g id="Layer_1_1_" class="st2">
</g>
</svg>
