<?xml version="1.0" encoding="utf-8"?>
<!-- Generator: Adobe Illustrator 21.0.0, SVG Export Plug-In . SVG Version: 6.00 Build 0)  -->
<svg version="1.1" id="Layer_1" xmlns="http://www.w3.org/2000/svg" xmlns:xlink="http://www.w3.org/1999/xlink" x="0px" y="0px"
	 viewBox="0 0 223 213" style="enable-background:new 0 0 223 213;" xml:space="preserve">
<style type="text/css">
	.st0{fill:#FFFFFF;}
	.st1{display:none;}
</style>
<g id="Layer_2">
	<g>
		<g>
			<g>
				<polygon class="st0" points="72.7,12 180,142.7 189.6,192.8 140,174.3 30.8,42.8 				"/>
				<path d="M72.7,11.8c9,10.4,18.1,21,27.2,31.6c9.1,10.7,18.2,21.5,27.3,32.4s18.2,21.8,27.1,32.9l26.4,33.4l0,0
					c0.1,0.1,0.1,0.2,0.2,0.4c0.7,4.2,1.5,8.4,2.2,12.6l2.3,12.6l2.4,12.5l2.5,12.5c0.1,0.4-0.2,0.7-0.6,0.8c-0.1,0-0.3,0-0.4,0l0,0
					c-8.3-3-16.6-5.9-25-8.9l-25-8.9c-0.2-0.1-0.4-0.2-0.6-0.4l0,0c-9.2-10.8-18.5-21.7-27.6-32.6S92.7,120.9,83.6,110
					C79,104.5,74.5,99,70,93.5s-9.1-11-13.5-16.5L29.7,43.7l0,0c-0.5-0.6-0.4-1.5,0.2-2l0.1-0.1l21.5-15.1L72.7,11.8z M72.7,12.2
					L52,28.3L31.7,43.9l0.3-2l27.7,32.5c4.6,5.4,9.2,10.9,13.8,16.3c4.6,5.4,9.1,10.9,13.7,16.4c9.1,10.9,18.1,22,27.1,33
					s18,22.1,27,33.1l-0.6-0.5l24.7,9.7c8.2,3.2,16.4,6.5,24.7,9.6l-0.9,0.8l-2.3-12.6l-2.4-12.5l-2.5-12.5
					c-0.9-4.2-1.7-8.3-2.6-12.5l0.2,0.4l-27.2-32c-9-10.7-17.8-21.5-26.6-32.4s-17.6-21.9-26.4-33C90.3,34.8,81.5,23.6,72.7,12.2z"
					/>
			</g>
			<g>
				<path d="M91.7,39.4c-2.5,2.8-5.2,5.3-7.9,7.6c-2.8,2.4-5.6,4.6-8.6,6.7c-2.9,2.1-6,4.1-9.1,6s-6.3,3.6-9.8,5.1
					c2.5-2.8,5.2-5.3,7.9-7.7c2.8-2.4,5.6-4.6,8.6-6.7c3-2.1,6-4.1,9.1-6C85.1,42.6,88.3,40.9,91.7,39.4z"/>
			</g>
			<g>
				<path d="M95.5,44c-2.4,2.9-5,5.5-7.7,7.9c-2.7,2.5-5.5,4.8-8.4,7s-5.9,4.4-9,6.4s-6.2,3.9-9.7,5.4c2.4-2.9,5-5.5,7.7-7.9
					c2.7-2.5,5.5-4.8,8.4-7s5.9-4.4,9-6.3C89,47.5,92.1,45.6,95.5,44z"/>
			</g>
			<g>
				<path d="M69,68.1c7.4,7.3,14.4,14.9,21.4,22.6c3.5,3.8,6.9,7.7,10.3,11.6l10.2,11.7l10,11.9c3.3,4,6.6,8,9.8,12
					c6.5,8.1,12.9,16.2,19,24.6c-7.4-7.3-14.4-14.9-21.4-22.6c-3.5-3.8-6.9-7.7-10.3-11.6l-10.2-11.7l-10-11.9c-3.3-4-6.6-8-9.8-12
					C81.5,84.6,75.1,76.5,69,68.1z"/>
			</g>
			<g>
				<path d="M87.5,54.8c7.2,7.3,14,14.8,20.7,22.4c3.4,3.8,6.7,7.7,10,11.5l9.9,11.7l9.7,11.8c3.2,4,6.4,7.9,9.5,11.9
					c6.3,8,12.5,16.1,18.3,24.4c-7.2-7.3-14-14.8-20.7-22.4c-3.4-3.8-6.7-7.7-10-11.5l-9.9-11.7l-9.7-11.8c-3.2-4-6.4-7.9-9.5-11.9
					C99.6,71.2,93.4,63.1,87.5,54.8z"/>
			</g>
			<g>
				<path d="M176.9,143.9c-3.3,1.9-6.5,3.9-9.6,5.9s-6,4.2-8.9,6.4c-2.9,2.3-5.6,4.6-8.4,7.1c-2.7,2.5-5.4,5.1-8.2,7.7
					c1.4-3.6,3.5-6.9,5.9-9.9s5.2-5.7,8.2-8.1c3-2.4,6.4-4.4,9.9-6C169.3,145.5,173,144.3,176.9,143.9z"/>
			</g>
			<path d="M189.6,192.8l-11.8-4.4c0,0,1.9-3.8,3.9-5.6s5.4-3,5.4-3L189.6,192.8z"/>
		</g>
		<g>
			<g>
				<path class="st0" d="M112.2,120.3c1.6-4.4-2.3,28.6-11,41.4s-45.5,41.2-73.4,0S64.6,109,76,107.1c11.5-1.9,15.1-10.8,15.1-10.8
					l12.2,15.8c0,0-6.4,6.6-13.7,10c-20,9.5-55.8,11.5-47.6,26.5c10.3,18.7,25.8,15,37.7,5.2s15.6-37.1,15.6-37.1"/>
				<path d="M112.2,120.3c0.1-0.1,0.1-0.3,0.2-0.4c0.1,0.1,0.1,0.3,0.1,0.5c0,0.3,0,0.6,0,1c0,0.6-0.1,1.3-0.1,1.9
					c-0.1,1.3-0.2,2.5-0.4,3.8c-0.3,2.5-0.7,5-1.1,7.5c-0.9,5-2,9.9-3.5,14.8c-0.7,2.4-1.6,4.9-2.6,7.2c-1,2.4-2.2,4.7-3.7,6.8
					c-3.1,4.2-6.9,7.7-11,10.8s-8.6,5.7-13.5,7.6c-4.8,1.9-10.1,3-15.3,2.9c-5.3-0.1-10.5-1.4-15.3-3.7c-4.7-2.3-8.9-5.6-12.5-9.4
					c-1.8-1.9-3.5-3.9-5-5.9c-1.6-2.1-3-4.2-4.3-6.5c-2.6-4.5-4.7-9.6-5-15.1c-0.1-1.4,0-2.7,0.1-4.1c0.2-1.4,0.4-2.7,0.9-4
					c0.8-2.6,2.1-5.1,3.7-7.3c3.2-4.4,7.5-7.7,12-10.3c4.5-2.7,9.3-4.8,14.1-6.5c4.8-1.8,9.8-3.2,14.8-4.4c2.5-0.6,5-1.1,7.5-1.6
					l3.7-0.7c1.1-0.2,2.3-0.5,3.3-0.9c2.2-0.8,4.2-1.9,5.9-3.4c0.9-0.7,1.7-1.6,2.4-2.5c0.4-0.4,0.7-0.9,1-1.4s0.6-1,0.7-1.4v-0.1
					c0.4-1,1.6-1.4,2.6-1c0.3,0.1,0.6,0.4,0.8,0.6l12.2,15.8l0,0c0.6,0.8,0.5,1.8-0.2,2.5c-2.6,2.5-5.2,4.7-8.1,6.7
					c-1.4,1-2.9,1.9-4.5,2.8c-1.6,0.8-3.2,1.5-4.8,2.2c-6.5,2.6-13.1,4.4-19.6,6.2c-3.3,0.9-6.5,1.8-9.7,2.8s-6.4,2.1-9.3,3.5
					c-1.5,0.7-2.8,1.5-4,2.5c-1.1,1-2,2.1-2.2,3.4c-0.3,1.2,0.1,2.7,0.7,4c0.7,1.4,1.6,2.9,2.5,4.2c1.9,2.7,4.2,5,6.9,6.7
					s5.9,2.5,9.1,2.4s6.4-1,9.4-2.4s5.8-3.2,8.4-5.3c2.5-2.1,4.6-4.8,6.3-7.6c1.7-2.9,3.1-6,4.3-9.1c2.4-6.3,4.2-12.9,5.4-19.6
					c-0.9,6.7-2.3,13.4-4.5,19.9c-1.1,3.2-2.4,6.4-4.1,9.4s-3.7,5.9-6.3,8.2c-2.6,2.3-5.5,4.3-8.6,5.8c-3.1,1.6-6.6,2.7-10.1,2.9
					c-3.6,0.2-7.3-0.6-10.4-2.4c-3.1-1.8-5.8-4.4-7.8-7.2c-1.1-1.4-2-2.9-2.9-4.5s-1.5-3.7-1.1-5.8s1.7-3.8,3.1-5.1
					c1.4-1.3,3-2.2,4.5-3c3.2-1.6,6.4-2.8,9.7-3.9c3.3-1.1,6.5-2,9.8-3c6.5-1.9,13-3.7,19.2-6.3c1.5-0.6,3-1.3,4.4-2.1
					c1.4-0.8,2.8-1.7,4.1-2.6c2.7-1.9,5.2-4.1,7.5-6.3l-0.1,2.5L89.6,97.5L93,97c-0.4,0.8-0.7,1.3-1,2c-0.4,0.6-0.8,1.2-1.2,1.7
					c-0.9,1.1-1.8,2.1-2.9,3c-2.1,1.8-4.5,3.3-7.1,4.2c-1.3,0.5-2.6,0.8-4,1.1l-3.7,0.7c-2.5,0.5-4.9,1-7.3,1.5
					c-4.9,1.1-9.7,2.5-14.4,4.2s-9.2,3.7-13.4,6.2s-8.1,5.5-10.9,9.3c-2.8,3.7-4.4,8.3-4.1,13c0.2,4.7,2,9.3,4.4,13.5
					c1.2,2.1,2.6,4.2,4.1,6.2s3,3.9,4.7,5.7c3.3,3.6,7.2,6.7,11.5,8.9s9.1,3.5,13.9,3.6c4.9,0.2,9.8-0.8,14.4-2.4
					c4.6-1.7,9-4.1,13.1-6.9c4-2.9,7.8-6.2,10.9-10.1c1.5-1.9,2.7-4.1,3.8-6.4c1.1-2.3,2-4.6,2.8-7c1.6-4.8,2.9-9.7,4-14.6
					c0.5-2.5,1-4.9,1.5-7.4c0.2-1.2,0.4-2.5,0.6-3.7c0.1-0.6,0.2-1.3,0.2-1.9c0-0.3,0-0.6,0-0.9c0-0.1,0-0.3-0.1-0.4
					C112.4,119.9,112.3,120.1,112.2,120.3z"/>
			</g>
			<g>
				<polygon class="st0" points="185.7,21.8 83,92.6 119.1,133.6 170,97.4 166.9,80.1 180.4,90 207,71.1 				"/>
				<path d="M185.7,22L160,40.8c-8.5,6.1-16.9,12.2-25.3,18.1c-8.4,6-16.8,11.8-25.4,17.5L83.4,93.2l0.1-1.2c3,3.5,5.9,7,8.9,10.4
					s6,6.9,9,10.3s6.1,6.8,9.1,10.2l9.2,10.1l-1.4-0.2l12.5-9.3c4.2-3.1,8.4-6.2,12.6-9.3c8.4-6.2,16.8-12.2,25.3-18.4l-0.8,2
					c-1.1-5.7-2.2-11.5-3.2-17.3c-0.2-1.2,0.6-2.3,1.7-2.5c0.6-0.1,1.2,0.1,1.6,0.4c4.5,3.3,9,6.6,13.5,9.9H179l13.4-9.3l13.4-9.3
					l-0.6,2.1l-4.9-12.2l-4.9-12.3L185.7,22z M185.8,21.6l11.3,24l5.8,12.3l5.7,12.5c0.3,0.7,0.1,1.6-0.5,2.1H208l-13.2,9.6
					l-13.2,9.6c-0.7,0.5-1.7,0.5-2.4,0l0,0c-4.5-3.2-9-6.6-13.5-9.8l3.4-2.1c1,5.8,2,11.5,3,17.3l0,0c0.1,0.8-0.2,1.5-0.8,2
					c-8.5,5.9-17,11.9-25.6,17.8c-4.3,2.9-8.6,5.9-12.9,8.8l-12.9,8.7l0,0c-0.4,0.3-1,0.2-1.4-0.2l-8.8-10.4
					c-3-3.5-5.9-6.9-8.9-10.4c-3-3.4-6-6.9-9-10.3s-6.1-6.8-9.2-10.1c-0.3-0.3-0.3-0.8,0.1-1.1l0.1-0.1l0,0L108,73.4
					c8.6-6.1,17.3-12.1,26-17.9c8.7-5.9,17.4-11.6,26.1-17.3C168.8,32.6,177.3,27,185.8,21.6z"/>
			</g>
			<g>
				<path d="M107.8,85c3.2,2.3,6,5,8.8,7.7s5.4,5.5,8,8.4s5,5.9,7.3,9s4.6,6.3,6.5,9.7c-3.2-2.3-6.1-5-8.8-7.7
					c-2.8-2.7-5.4-5.5-8-8.4s-5-5.9-7.3-9C112,91.7,109.7,88.5,107.8,85z"/>
			</g>
		</g>
	</g>
</g>
<g id="Layer_3">
</g>
<g id="Layer_1_1_" class="st1">
	
		<image style="display:inline;overflow:visible;enable-background:new    ;" width="2480" height="3507" xlink:href="../../../../../../Users/Obotchaman/Pictures/MP Navigator EX/2018_08_22/Rechnungen-04_2018_0002.jpg"  transform="matrix(0.24 0 0 0.24 -412 -29)">
	</image>
</g>
</svg>
