<?xml version="1.0" encoding="utf-8"?>
<!-- Generator: Adobe Illustrator 21.0.0, SVG Export Plug-In . SVG Version: 6.00 Build 0)  -->
<svg version="1.1" id="Layer_1" xmlns="http://www.w3.org/2000/svg" xmlns:xlink="http://www.w3.org/1999/xlink" x="0px" y="0px"
	 viewBox="0 0 235 213" style="enable-background:new 0 0 235 213;" xml:space="preserve">
<style type="text/css">
	.st0{fill:#FFFFFF;}
	.st1{fill:none;}
	.st2{display:none;}
</style>
<g id="Layer_2">
	<g>
		<g>
			<path class="st0" d="M21,188.9l19.8-78.3c0,0-22-8.5-25.5-29s8-41,29-46.5s43.3,9,46,35.5s-23,38.5-23,38.5l17.3,85"/>
			<path d="M21,188.9c1.5-6.6,3-13.1,4.5-19.7l4.6-19.6l4.6-19.6l4.7-19.6l0.8,1.5c-4.4-1.8-8.3-4.1-11.9-6.9s-6.9-6.2-9.5-10
				c-2.6-3.9-4.5-8.3-5.3-13c-0.8-4.6-0.9-9.3-0.3-13.9c1.3-9.2,5.5-18.1,12.3-24.6c3.4-3.3,7.3-5.9,11.6-7.9c2.1-1,4.4-1.7,6.6-2.3
				c2.3-0.6,4.6-1,7-1.1c9.5-0.7,19,2.6,26.2,8.6c3.6,3,6.7,6.7,9,10.7c2.4,4,4,8.5,5,13c0.5,2.3,0.8,4.6,1,6.9s0.1,4.7-0.1,7
				c-0.5,4.7-1.9,9.2-4.2,13.3c-2.3,4.1-5.2,7.7-8.6,10.8c-1.7,1.6-3.5,3-5.4,4.3s-3.8,2.5-6,3.5l0.7-1.5l4.1,21.3l4,21.3l4,21.3
				l3.9,21.3l-4.5-21l-4.6-21.2l-4.6-21.2L66,109.4l-0.2-1l0.9-0.5c3.7-2,7.3-4.6,10.5-7.6c3.1-3,5.8-6.4,7.8-10.2
				c2-3.8,3.2-7.9,3.6-12.1c0.2-2.1,0.2-4.2,0-6.4c-0.1-1.1-0.3-2.1-0.4-3.2c-0.2-1.1-0.4-2.1-0.6-3.2c-1.9-8.4-6.4-16.1-12.9-21.5
				S59.6,35.4,51.2,36c-2.1,0.1-4.2,0.5-6.2,1c-2.1,0.5-4.1,1.2-6,2.1c-3.9,1.7-7.5,4.1-10.5,7.1c-6.2,5.9-10.2,13.9-11.4,22.4
				c-0.6,4.2-0.6,8.6,0.1,12.8c0.7,4.2,2.3,8.2,4.6,11.8c4.6,7.2,11.9,12.8,19.7,16.3l1.1,0.5l-0.3,1l-5.2,19.5L31.6,150l-5.3,19.5
				C24.6,176,22.8,182.4,21,188.9z"/>
		</g>
		<g>
			<polyline class="st0" points="57.2,93.3 48.5,56.7 66.3,51.4 105,48.4 109.8,80.4 75.3,90.9 59,93.3 			"/>
			<path d="M57.2,93.3c-1.7-6-3.5-12.1-5.1-18.1c-1.7-6-3.2-12.1-4.9-18.2l-0.3-1.2l1.2-0.4l8.8-2.8l8.8-2.8h0.1H66
				c6.5-0.6,12.9-1.2,19.4-1.7l9.7-0.8c3.2-0.3,6.5-0.5,9.7-0.8l1.9-0.1l0.3,1.8l2.3,16l2.2,16l0.2,1.5l-1.4,0.4
				c-2.9,0.8-5.8,1.6-8.7,2.5L92.9,87c-5.8,1.6-11.6,3.2-17.4,4.7h-0.1l0,0C70,92.3,64.5,92.8,59,93.3c5.4-1.1,10.8-2.1,16.1-3.1H75
				c5.7-2,11.4-3.9,17.1-5.8l8.6-2.8c2.9-0.9,5.7-1.9,8.6-2.8l-1.2,1.9l-2.6-16l-2.4-16l2.1,1.7c-3.2,0.3-6.5,0.5-9.7,0.7l-9.7,0.7
				c-6.5,0.5-12.9,0.9-19.4,1.3l0.4-0.1l-8.9,2.5L49,57.9l0.9-1.6c1.3,6.1,2.6,12.3,3.8,18.4C54.8,80.9,56,87.1,57.2,93.3z"/>
		</g>
		<g>
			<line class="st1" x1="69" y1="56.7" x2="74.3" y2="85.4"/>
			<path d="M69,56.7c1.1,2.3,1.8,4.6,2.5,7c0.7,2.4,1.2,4.7,1.6,7.1s0.8,4.8,1,7.2c0.2,2.4,0.3,4.9,0.2,7.4c-1.1-2.3-1.8-4.6-2.5-7
				s-1.2-4.7-1.6-7.1s-0.8-4.8-1-7.2C69,61.6,68.8,59.2,69,56.7z"/>
		</g>
		<g>
			<line class="st1" x1="51.9" y1="71" x2="15.3" y2="77.2"/>
			<path d="M51.9,71c-3,1.1-6,2-9,2.7s-6.1,1.3-9.1,1.9c-3.1,0.5-6.1,0.9-9.2,1.2c-3.1,0.3-6.2,0.5-9.4,0.4c3-1.1,6-2,9-2.7
				s6.1-1.3,9.1-1.9c3.1-0.5,6.1-0.9,9.2-1.2C45.6,71.1,48.7,70.9,51.9,71z"/>
		</g>
		<g>
			<line class="st1" x1="53.5" y1="79.7" x2="17" y2="87.2"/>
			<path d="M53.5,79.7c-2.9,1.2-5.9,2.2-8.9,3c-3,0.9-6,1.6-9.1,2.2c-3,0.6-6.1,1.2-9.2,1.6s-6.2,0.7-9.4,0.7c2.9-1.2,5.9-2.2,8.9-3
				c3-0.9,6-1.6,9.1-2.2c3-0.6,6.1-1.2,9.2-1.5C47.2,80,50.3,79.7,53.5,79.7z"/>
		</g>
		<g>
			<line class="st1" x1="138.9" y1="132.3" x2="119.3" y2="194.2"/>
			<path d="M138.9,132.3c-1,5.3-2.4,10.6-3.8,15.8c-0.7,2.6-1.5,5.2-2.2,7.8l-2.4,7.8l-2.5,7.7c-0.9,2.6-1.7,5.1-2.7,7.7
				c-1.8,5.1-3.8,10.1-6,15.1c1-5.3,2.4-10.6,3.8-15.8c0.7-2.6,1.5-5.2,2.2-7.8l2.4-7.8l2.5-7.7c0.9-2.6,1.7-5.1,2.7-7.7
				C134.7,142.4,136.6,137.3,138.9,132.3z"/>
		</g>
		<g>
			<line class="st1" x1="163.9" y1="132.3" x2="179.5" y2="199.5"/>
			<path d="M163.9,132.3c1.9,5.5,3.5,11,5,16.5c0.8,2.8,1.5,5.6,2.2,8.3l2,8.4l1.9,8.4c0.6,2.8,1.2,5.6,1.7,8.5
				c1.1,5.6,2.1,11.3,2.8,17.1c-1.9-5.5-3.5-11-5-16.5c-0.8-2.8-1.5-5.6-2.2-8.3l-2-8.4l-1.9-8.4c-0.6-2.8-1.2-5.6-1.7-8.5
				C165.6,143.8,164.6,138.1,163.9,132.3z"/>
		</g>
		<g>
			<line class="st1" x1="151.2" y1="133" x2="150.9" y2="201.5"/>
			<path d="M151.2,133c0.6,5.7,0.9,11.4,1.1,17.1c0.1,2.9,0.1,5.7,0.2,8.6l0.1,8.6l-0.1,8.6c-0.1,2.9-0.1,5.7-0.3,8.6
				c-0.2,5.7-0.6,11.4-1.2,17.1c-0.6-5.7-0.9-11.4-1.1-17.1c-0.1-2.9-0.1-5.7-0.2-8.6v-8.6l0.1-8.6c0.1-2.9,0.1-5.7,0.3-8.6
				C150.2,144.4,150.5,138.7,151.2,133z"/>
		</g>
		<g>
			<path class="st0" d="M55.3,125.2c0,0,7.1,22,30.3,25.3s52.5-12.6,55-9.1s-6.5,8.6-6.5,8.6s12.3-7.5,12.8-3.8s-9.5,9-9.5,9
				s11.8-6,11.8-2s-26.3,26.3-65.5,18s-35-39.8-35-39.8"/>
			<path d="M55.3,125.2c1.7,4.3,4.1,8.2,7,11.6c2.9,3.5,6.4,6.4,10.3,8.6c3.9,2.2,8.3,3.5,12.7,4.2c4.4,0.6,9,0.5,13.4,0
				c9-1,17.7-3.6,26.4-6.4l6.6-2.1c1.1-0.3,2.2-0.7,3.4-0.9c1.2-0.3,2.3-0.6,3.6-0.6c0.3,0,0.7,0,1.1,0c0.4,0.1,0.9,0.2,1.5,0.6
				c0.1,0.1,0.3,0.3,0.4,0.4l0.2,0.3c0.1,0.2,0.2,0.4,0.3,0.6c0.2,0.4,0.2,0.9,0.2,1.3c0,0.9-0.3,1.6-0.7,2.3
				c-0.4,0.6-0.8,1.1-1.2,1.6c-1.7,1.9-3.6,3.2-5.7,4.5c-0.7,0.4-1.6,0.2-2-0.5s-0.2-1.6,0.5-2l0,0l0,0c2.1-1.2,4.1-2.4,6.3-3.4
				c1.1-0.5,2.2-1,3.5-1.3c0.6-0.2,1.3-0.3,2.1-0.4c0.4,0,0.8,0,1.4,0.2c0.5,0.2,1.2,0.7,1.5,1.3c0.3,0.7,0.3,1.1,0.2,1.6
				c0,0.5-0.2,0.9-0.3,1.3c-0.3,0.7-0.7,1.3-1.1,1.9c-0.8,1-1.8,1.9-2.7,2.6c-1.9,1.5-3.9,2.8-6.1,4l-1.4-2.6
				c2.8-1.4,5.5-2.6,8.7-3.3c0.8-0.1,1.7-0.3,2.8-0.1c0.5,0.1,1.3,0.3,1.9,1.1c0.3,0.4,0.4,0.8,0.5,1.1c0,0.2,0,0.4,0,0.5
				c0,0.2,0,0.4-0.1,0.6c-0.2,0.7-0.4,1.1-0.6,1.5c-0.2,0.4-0.5,0.7-0.8,1.1c-0.5,0.6-1.1,1.2-1.6,1.8c-2.3,2.2-4.8,4-7.3,5.6
				c-2.6,1.6-5.3,3-8.1,4.3c-11.1,4.9-23.4,7-35.5,6.2c-6-0.4-12-1.4-17.8-3.1c-2.9-0.8-5.7-1.9-8.5-3.2c-2.7-1.3-5.4-2.9-7.8-4.7
				c-4.8-3.7-8.8-8.5-11.2-14.1c-2.4-5.5-3.4-11.7-2.7-17.6c-0.2,3,0.1,6,0.7,8.9c0.6,2.9,1.5,5.7,2.8,8.4
				c2.5,5.3,6.5,9.9,11.3,13.2c2.4,1.7,4.9,3.1,7.6,4.3c2.7,1.1,5.4,2.2,8.3,2.9c5.7,1.5,11.6,2.4,17.4,2.6
				c11.7,0.5,23.6-1.6,34.2-6.4c2.7-1.2,5.2-2.6,7.7-4.1s4.8-3.3,6.8-5.2c0.5-0.5,1-1,1.4-1.5c0.2-0.3,0.4-0.5,0.5-0.8
				c0.1-0.2,0.3-0.5,0.3-0.5s0,0.1,0,0l0,0c0,0,0,0.1,0.1,0.1c0.1,0.1,0.2,0.1,0,0.1c-0.4-0.1-1,0-1.7,0.1c-2.6,0.6-5.4,1.8-7.9,3.1
				l0,0c-0.7,0.4-1.6,0-2-0.7c-0.3-0.7-0.1-1.6,0.6-2c1.9-1.1,3.9-2.3,5.6-3.6c0.9-0.7,1.7-1.4,2.3-2.2c0.3-0.4,0.6-0.8,0.7-1.1
				c0.1-0.2,0.1-0.3,0.1-0.4c0-0.1,0-0.2,0-0.1c0,0.1,0.2,0.2,0.2,0.2s-0.1,0-0.3,0c-0.4,0-0.9,0.1-1.4,0.2c-1,0.3-2,0.7-3.1,1.1
				c-2,0.9-4.1,2-6,3.2l-1.5-2.5c1.8-1.1,3.7-2.4,5.1-3.8c0.7-0.7,1.2-1.6,1.2-2.1c0-0.1,0-0.2,0-0.3s0-0.1-0.1-0.2v-0.1
				c0,0,0,0.1,0.1,0.1c0.1,0.1,0,0-0.1,0s-0.4,0-0.6,0c-0.9,0-2,0.3-3.1,0.5c-1.1,0.3-2.2,0.6-3.2,0.9l-6.5,2
				c-8.8,2.6-17.7,5-26.9,5.9c-4.6,0.4-9.3,0.4-13.9-0.3s-9.1-2.3-13-4.8c-4-2.4-7.4-5.6-10.3-9.2C59,133.6,56.7,129.5,55.3,125.2z"
				/>
		</g>
		<g>
			<path class="st0" d="M133.8,108.2c0,0,6.2,14.8,19.8,14c13.7-0.8,17.4-14,17.4-14"/>
			<path d="M133.8,108.2c2.3,3.5,5,6.6,8.2,8.9s6.9,3.7,10.7,3.6c3.8,0,7.6-1.1,10.8-3.3c3.2-2.2,5.7-5.5,7.6-9.2
				c-0.7,4.1-2.9,8.1-6.2,11c-3.3,3-7.8,4.5-12.2,4.5c-2.2,0-4.5-0.4-6.6-1.3s-4-2.1-5.6-3.5C137.2,115.9,134.9,112.2,133.8,108.2z"
				/>
		</g>
		<g>
			<polyline class="st0" points="185.8,77.2 214,60.7 214,102.4 185.8,88.4 			"/>
			<path d="M185.8,77.2c4.5-3.1,9.1-6.1,13.7-9c2.3-1.5,4.6-2.9,6.9-4.4c2.3-1.4,4.6-2.9,7-4.3l1.9-1.2v2.3c0,3.5,0.1,7,0.1,10.4
				l0.1,10.4L215.4,92l-0.2,10.4v2.1l-1.8-1l-7-3.7c-2.3-1.2-4.6-2.5-6.9-3.7c-2.3-1.2-4.6-2.5-6.9-3.8c-2.3-1.3-4.6-2.6-6.8-3.9
				c2.4,1,4.9,2,7.3,3.1c2.4,1.1,4.8,2.1,7.2,3.2s4.8,2.1,7.2,3.3l7.1,3.3l-1.9,1.2L212.6,92l-0.1-10.4l0.1-10.4
				c0-3.5,0.1-7,0.1-10.4l2,1.1c-2.4,1.3-4.8,2.6-7.2,4c-2.4,1.3-4.8,2.6-7.2,3.9C195.5,72.2,190.7,74.8,185.8,77.2z"/>
		</g>
		<g>
			<polyline class="st0" points="120.8,108.2 119.3,62.4 184,62.4 184,106.7 120.8,108.2 			"/>
			<path d="M120.8,108.2c-0.6-7.6-1.2-15.2-1.6-22.8L118.5,74l-0.6-11.4l-0.1-1.5h1.5l16.2-0.3l16.2-0.2c5.4-0.1,10.8-0.1,16.2-0.1
				h16.2h2v2L186,84.6c-0.1,7.4-0.1,14.7-0.3,22.1v1.6h-1.5l-15.8,0.1h-15.8l-15.8-0.1C131.3,108.3,126,108.3,120.8,108.2
				c5.3-0.3,10.5-0.7,15.8-1l15.8-0.8l15.8-0.7l15.8-0.6l-1.6,1.6c-0.1-7.4-0.2-14.7-0.3-22.1L182,62.4l2,2h-16.2
				c-5.4,0-10.8,0-16.2-0.1l-16.2-0.2l-16.2-0.3l1.5-1.5l0.1,11.4l0.1,11.4C120.9,92.9,120.9,100.5,120.8,108.2z"/>
		</g>
		<g>
			<circle class="st0" cx="134.1" cy="45.8" r="14.9"/>
			<path d="M134.1,60.9c-2,0-3.9-0.3-5.9-0.9c-1.9-0.6-3.9-1.5-5.5-2.8c-1.7-1.3-3.1-3-4-5s-1.3-4.2-1.2-6.4
				c0.1-2.2,0.8-4.3,1.8-6.1c1-1.9,2.3-3.5,3.8-4.9c3-2.8,6.8-4.6,11-5c2.1-0.2,4.3,0,6.3,0.7s3.9,1.9,5.5,3.4
				c3.2,3,5.2,7.4,5.2,11.9c0,2.2-0.5,4.4-1.5,6.4c-0.9,2-2.4,3.7-4.1,5C142.1,59.9,138,60.9,134.1,60.9z M134.1,60.5
				c1.9,0,3.8-0.5,5.5-1.4s3-2.2,4.1-3.7c1.1-1.4,1.8-3,2.4-4.6c0.5-1.6,0.8-3.3,0.8-4.9c-0.1-3.3-1.2-6.7-3.6-9.2
				c-1.2-1.3-2.6-2.3-4.1-3.1c-1.6-0.8-3.3-1.3-5.1-1.5s-3.7,0-5.4,0.7c-1.7,0.6-3.4,1.7-4.6,3.1c-1.3,1.4-2.2,3.1-2.7,4.8
				s-0.6,3.5-0.5,5.3c0.3,3.5,1.5,6.7,3.6,9.6c1.1,1.4,2.5,2.8,4.1,3.7C130.3,60,132.2,60.5,134.1,60.5z"/>
		</g>
		<g>
			<circle class="st0" cx="170.3" cy="38.8" r="21.4"/>
			<path d="M170.3,60.4c-2.8,0-5.6-0.5-8.4-1.4c-2.7-0.9-5.4-2.3-7.6-4.2c-2.3-1.9-4.2-4.4-5.4-7.2s-1.8-5.8-1.7-8.9
				c0.1-3,0.9-6,2.3-8.6c1.3-2.6,3.1-5,5.2-7c4.2-4,9.7-6.5,15.6-6.9c2.9-0.2,6,0.2,8.8,1.2s5.5,2.7,7.7,4.8
				c4.4,4.2,7.1,10.3,7.1,16.5c0,3.1-0.7,6.1-2,8.9c-1.3,2.8-3.2,5.2-5.5,7.1C181.7,58.7,175.9,60.4,170.3,60.4z M170.3,60
				c2.8,0,5.5-0.7,8-1.9c2.4-1.2,4.5-3,6.2-5.1c1.7-2,2.9-4.3,3.8-6.7c0.9-2.4,1.3-4.9,1.3-7.4c-0.1-5-1.9-10-5.5-13.8
				c-3.5-3.7-8.5-6.1-13.8-6.5c-2.7-0.2-5.4,0.2-7.9,1.2s-4.9,2.5-6.7,4.5c-1.9,2-3.3,4.4-4.1,6.9s-1.1,5.2-1,7.8
				c0.3,5.2,2.2,10.1,5.5,14.2c1.7,2,3.8,3.8,6.2,5.1C164.7,59.3,167.5,60,170.3,60z"/>
		</g>
		<g>
			<polyline class="st0" points="173.1,132.3 173.1,124 134.1,124 134.1,132.3 170.5,132.3 			"/>
			<path d="M173.1,132.3c-0.2-2.8-0.4-5.6-0.6-8.3l0.6,0.6c-3.2,0.2-6.5,0.3-9.7,0.5c-3.2,0.1-6.5,0.2-9.7,0.3
				c-3.2,0-6.5,0.1-9.7,0.2h-9.7l1.5-1.5l-0.1,8.3l-1.4-1.4c6.1,0.1,12.1,0.2,18.2,0.4c3,0.1,6.1,0.2,9.1,0.4s6.1,0.4,9.1,0.6
				c-3,0.2-6.1,0.5-9.1,0.6c-3,0.2-6.1,0.3-9.1,0.4c-6.1,0.2-12.1,0.3-18.2,0.4h-1.4v-1.5l-0.1-8.3v-1.5h1.5h9.7
				c3.2,0,6.5,0.1,9.7,0.2s6.5,0.2,9.7,0.3c3.2,0.1,6.5,0.3,9.7,0.5h0.6v0.5C173.5,126.8,173.3,129.6,173.1,132.3z"/>
		</g>
	</g>
</g>
<g id="Layer_3">
</g>
<g id="Layer_1_1_" class="st2">
	
		<image style="display:inline;overflow:visible;enable-background:new    ;" width="2480" height="3507" xlink:href="../../../../../../Users/Obotchaman/Pictures/MP Navigator EX/2018_08_22/Rechnungen-04_2018_0002.jpg"  transform="matrix(0.24 0 0 0.24 -50 -29)">
	</image>
</g>
</svg>
